<?xml version="1.0" encoding="UTF-8"?>
<svg version="1.1" xmlns="http://www.w3.org/2000/svg" width="1024" height="1024">
<path d="M0 0 C5.41548769 0.00574675 10.8309263 0.00236549 16.24641228 -0.00357246 C20.52105056 -0.0072279 24.79567765 -0.00601777 29.07031631 -0.00344467 C31.06564465 -0.00279174 33.0609741 -0.00354436 35.05630112 -0.00592422 C45.660352 -0.01582626 56.22106548 0.16372136 66.81396484 0.66723633 C76.22533045 1.10765584 85.53425155 1.11471747 94.94639206 0.76024818 C115.75414522 -0.00545323 136.53747261 0.09996751 157.35351562 0.37231445 C162.08114945 0.43391633 166.80880453 0.48042865 171.53664207 0.52314472 C175.27239398 0.55878437 179.00801043 0.60294789 182.7436409 0.64949608 C184.48711783 0.67013754 186.23062848 0.68814859 187.97416306 0.7031498 C219.91445872 0.9928592 247.61273894 5.60417554 272.58154297 27.13037109 C273.24025391 27.66662109 273.89896484 28.20287109 274.57763672 28.75537109 C279.10138392 32.46303027 282.80804124 36.67612629 286.58154297 41.13037109 C287.76791154 42.46471124 288.95540526 43.7980519 290.14404297 45.13037109 C291.29514424 46.45915914 292.44111603 47.79241063 293.58154297 49.13037109 C294.10876953 49.74396484 294.63599609 50.35755859 295.17919922 50.98974609 C298.93786058 55.64241131 301.19694976 60.44889142 303.36279297 66.00927734 C304.14652631 68.01633805 304.97669019 70.00620045 305.86279297 71.97021484 C308.48051571 77.78826324 310.35750272 83.56522057 311.83154297 89.75537109 C311.99468994 90.43559326 312.15783691 91.11581543 312.32592773 91.81665039 C314.51698317 101.56154144 314.72818446 111.29528383 314.71525574 121.24874878 C314.71865407 123.18446879 314.71865407 123.18446879 314.72212106 125.15929425 C314.72820034 128.71643721 314.72811007 132.27355653 314.72692668 135.8307035 C314.7267217 139.67674094 314.73225068 143.52277098 314.73698425 147.36880493 C314.7452696 154.89396976 314.74803812 162.41912674 314.74859663 169.94429575 C314.74907271 176.0633301 314.75113201 182.18236188 314.75429726 188.30139542 C314.76309731 205.66818626 314.76771754 223.03497093 314.76696678 240.40176402 C314.76690685 241.80438985 314.76690685 241.80438985 314.7668457 243.23535156 C314.76678438 244.63969885 314.76678438 244.63969885 314.76672182 246.0724168 C314.76631532 261.24708904 314.77588758 276.42173648 314.78998407 291.59640156 C314.80435997 307.19546903 314.81125362 322.79452441 314.81039029 338.39359868 C314.81005879 347.14419359 314.81278553 355.89476248 314.82356834 364.64535141 C314.83268923 372.09462601 314.83483549 379.54386278 314.82805892 386.99314056 C314.824802 390.79007278 314.82470702 394.58693248 314.83341217 398.38385773 C314.84277138 402.50863495 314.83647975 406.63324547 314.82878113 410.75802612 C314.83392469 411.94579049 314.83906825 413.13355486 314.84436768 414.35731208 C314.80036641 425.05891418 313.30247016 435.0871098 309.76904297 445.19287109 C309.50696045 445.96091064 309.24487793 446.7289502 308.97485352 447.52026367 C307.14497902 452.78080701 305.0739729 457.87267039 302.65185547 462.89208984 C301.45797163 465.30524196 301.45797163 465.30524196 300.26904297 468.63037109 C298.22525758 472.86933337 295.64124289 476.40826974 292.81591797 480.16162109 C291.31363947 482.15765547 289.84506145 484.17945988 288.40966797 486.22412109 C280.7992642 496.91107106 271.63736102 503.32549828 260.58154297 510.13037109 C259.93958984 510.55962891 259.29763672 510.98888672 258.63623047 511.43115234 C252.04911355 515.8083058 244.80679516 518.96797453 237.58154297 522.13037109 C236.62892578 522.54802734 235.67630859 522.96568359 234.69482422 523.39599609 C218.57918606 529.85188701 200.61398593 528.41683161 183.59065211 528.37716138 C179.78874355 528.37051936 175.98684681 528.3755471 172.18493652 528.37904358 C164.75266577 528.38406123 157.32043985 528.3784733 149.88817468 528.36919328 C141.20584264 528.35874768 132.52352 528.35888116 123.84118287 528.35936586 C108.3259973 528.35986557 92.8108324 528.35073283 77.2956543 528.33618164 C62.29760359 528.32212303 47.29957106 528.31500984 32.30151367 528.31567383 C30.91812026 528.31573376 30.91812026 528.31573376 29.50677951 528.31579491 C28.58599655 528.31583526 27.66521359 528.31587562 26.71652812 528.31591719 C9.57355926 528.31661076 -7.56940197 528.31069234 -24.71236834 528.30176398 C-30.73865874 528.29877106 -36.76494772 528.2976872 -42.79123878 528.29723167 C-50.16203308 528.29654267 -57.53281454 528.2919849 -64.90360341 528.28289887 C-68.65165124 528.27834507 -72.39968291 528.27521093 -76.14773369 528.27649307 C-90.07332611 528.28013248 -103.98553033 528.20111241 -117.90312195 527.68379211 C-118.95596904 527.64511621 -120.00881612 527.6064403 -121.09356767 527.5665924 C-138.4701953 526.83824161 -161.21391941 521.68373784 -173.91625977 508.5859375 C-175.58100682 506.81375369 -175.58100682 506.81375369 -179.04345703 505.44287109 C-184.3017408 502.9250925 -188.23943885 499.13155871 -192.41845703 495.13037109 C-193.24345703 494.34662109 -194.06845703 493.56287109 -194.91845703 492.75537109 C-195.74345703 491.88912109 -196.56845703 491.02287109 -197.41845703 490.13037109 C-198.10810547 489.41236328 -198.79775391 488.69435547 -199.50830078 487.95458984 C-207.69650308 479.19416708 -212.54734624 470.69547593 -216.23950195 459.37036133 C-217.66342759 455.03379151 -219.39362306 451.08416521 -221.49072266 447.03222656 C-222.83624379 444.27390823 -223.73054319 441.44247385 -224.60595703 438.50537109 C-225.09128906 436.90822266 -225.09128906 436.90822266 -225.58642578 435.27880859 C-230.20448825 417.80388676 -228.56628172 398.18784127 -228.5491817 380.28937101 C-228.54688755 376.72564735 -228.55042681 373.16192827 -228.55316162 369.59820557 C-228.55757538 362.64477276 -228.55666273 355.69135084 -228.55374898 348.73791763 C-228.55147826 343.08203462 -228.55118961 337.42615464 -228.5522728 331.7702713 C-228.55242603 330.96122025 -228.55257926 330.1521692 -228.55273714 329.31860144 C-228.5530569 327.67439856 -228.55338112 326.03019568 -228.55370973 324.3859928 C-228.55655145 309.02091321 -228.55329771 293.65583962 -228.54790936 278.29076102 C-228.54343911 265.13670878 -228.54422162 251.98266537 -228.54882812 238.82861328 C-228.55419118 223.50729103 -228.55628045 208.18597402 -228.55321586 192.86465096 C-228.55289735 191.22816992 -228.55258298 189.59168887 -228.5522728 187.95520782 C-228.55211852 187.15027485 -228.55196425 186.34534188 -228.5518053 185.516017 C-228.55094559 179.87173781 -228.55239114 174.22746196 -228.55475235 168.58318329 C-228.55756966 161.6981921 -228.55677143 154.81321229 -228.55147161 147.92822239 C-228.54886106 144.42251441 -228.54778419 140.91682535 -228.55112076 137.41111755 C-228.57844738 99.56298329 -228.57844738 99.56298329 -224.23095703 87.00537109 C-223.76447754 85.59843994 -223.76447754 85.59843994 -223.28857422 84.16308594 C-221.13694573 77.82092568 -218.65665531 71.77113798 -215.69189453 65.76318359 C-214.55375823 63.41010424 -213.64069299 61.09919845 -212.79345703 58.63037109 C-211.39798828 55.07826881 -209.83753561 53.04124037 -207.41845703 50.13037109 C-206.85126953 49.38658203 -206.28408203 48.64279297 -205.69970703 47.87646484 C-198.16369 38.10939013 -189.55541935 29.46236793 -179.77001953 21.94677734 C-177.99742196 20.57757822 -176.28059933 19.13572923 -174.59423828 17.66162109 C-171.30986162 14.91649373 -167.80683735 12.96195062 -163.98095703 11.06787109 C-163.29372559 10.72425537 -162.60649414 10.38063965 -161.8984375 10.02661133 C-155.87312575 7.12943029 -149.82601108 5.34603904 -143.33251953 3.82177734 C-140.50230858 3.26756736 -140.50230858 3.26756736 -138.41845703 2.13037109 C-126.31787937 0.6316757 -114.05170863 1.05230886 -101.88769531 1.15087891 C-90.07121985 1.23761371 -78.27787176 1.06414843 -66.46725845 0.70895004 C-44.31094342 0.04713141 -22.16502198 -0.02382071 0 0 Z " fill="#076F35" transform="translate(468.41845703125,263.86962890625)"/>
<path d="M0 0 C34.30231123 -0.2749442 68.60436999 -0.48625549 102.90754597 -0.61278395 C106.96155914 -0.6277916 111.01557014 -0.64332355 115.06958008 -0.65917969 C115.87662665 -0.66232741 116.68367321 -0.66547514 117.51517574 -0.66871825 C130.56588182 -0.72086894 143.61595062 -0.81544639 156.66627922 -0.92583355 C170.06711927 -1.03823625 183.46762664 -1.10474376 196.86891872 -1.12906194 C205.13204807 -1.1454905 213.39337595 -1.19728249 221.6559504 -1.2949976 C227.32966344 -1.3586593 233.00245165 -1.37755097 238.67649551 -1.36201653 C241.94625974 -1.35436285 245.212247 -1.37234883 248.48159218 -1.4304657 C270.13069424 -1.79631645 270.13069424 -1.79631645 277.19856435 4.15321231 C279.70407845 6.62185103 281.83553258 9.22308875 284 12 C285.54383728 13.62213544 287.10278772 15.23027248 288.6875 16.8125 C289.74904297 17.88177734 289.74904297 17.88177734 290.83203125 18.97265625 C301.44308176 28.8954224 313.73609541 34.48789654 328.26171875 34.33984375 C343.79359959 32.92785458 356.62026109 25.45042831 367 14 C368.55392052 17.10784105 367.17334681 19.8790308 366.30029297 23.08447266 C366.106493 23.81809556 365.91269302 24.55171846 365.71302032 25.30757236 C365.0628702 27.76159715 364.40252817 30.2127619 363.7421875 32.6640625 C363.2820764 34.39260461 362.82258467 36.12131169 362.36367798 37.85017395 C361.13114269 42.485883 359.88965083 47.11914675 358.64584351 51.7518425 C357.36628064 56.52114474 356.09275595 61.29205938 354.81835938 66.06274414 C353.29844538 71.75017254 351.77717497 77.43723025 350.25152588 83.12312317 C347.74049146 92.48213306 345.24218798 101.84401659 342.78372192 111.21697998 C341.6225166 115.6424477 340.45182769 120.06536659 339.27886963 124.48773193 C338.76619822 126.42934282 338.25774164 128.37207232 337.75384521 130.315979 C332.95243923 148.81217005 327.00135241 164.30445213 309.765625 174.53515625 C300.29847037 179.549539 290.92574593 182.31270277 280.222229 182.26069641 C278.95060775 182.26643473 278.95060775 182.26643473 277.65329719 182.27228898 C274.831626 182.2825524 272.01016085 182.27863952 269.18847656 182.2746582 C267.15752984 182.27900843 265.12658475 182.28419262 263.09564209 182.29014587 C257.59133485 182.30351543 252.08709637 182.30411668 246.58277607 182.30158257 C241.98067225 182.30051122 237.37858224 182.30540059 232.77648139 182.310188 C221.91380256 182.32127669 211.05115831 182.32172454 200.18847656 182.31567383 C189.00043798 182.30963744 177.81252526 182.32193807 166.62450814 182.3432439 C157.00384861 182.36088801 147.38322904 182.36685672 137.76255393 182.36360615 C132.02333131 182.36179722 126.28419844 182.36439028 120.54499054 182.37832069 C115.14407608 182.3909397 109.743357 182.38891644 104.34244537 182.37590981 C102.36725802 182.37355312 100.39205675 182.37624591 98.41688538 182.38453293 C79.03387725 182.45995166 61.63512363 179.52575583 47.1796875 165.42578125 C33.6664165 150.38681836 30.95040517 128.33491927 26.25485229 109.2948761 C25.39771001 105.82306903 24.53564305 102.35248552 23.67382812 98.88183594 C23.31712484 97.44513283 22.96043551 96.00842625 22.60375977 94.57171631 C22.42487213 93.85114799 22.2459845 93.13057968 22.06167603 92.38817596 C21.51186477 90.17234566 20.96276682 87.9563396 20.41381836 85.74029541 C17.89008079 75.55650232 15.34009643 65.37952078 12.77515411 55.2060318 C11.58997263 50.5037812 10.4072961 45.80089968 9.22431564 41.09809494 C8.26923301 37.30234103 7.3125303 33.50700921 6.35241699 29.71252441 C5.44982133 26.1449817 4.55165492 22.57635245 3.65677643 19.00686646 C3.16887432 17.06584825 2.676145 15.12604544 2.18328857 13.1862793 C1.89399475 12.02942627 1.60470093 10.87257324 1.30664062 9.68066406 C1.05289673 8.67457092 0.79915283 7.66847778 0.53771973 6.63189697 C0 4 0 4 0 0 Z " fill="#FEFEFC" transform="translate(319,536)"/>
<path d="M0 0 C0.8720961 -0.0065712 1.7441922 -0.0131424 2.64271545 -0.01991272 C5.52727348 -0.03961259 8.41177945 -0.05130253 11.29638672 -0.0612793 C12.2842001 -0.06535482 13.27201347 -0.06943035 14.28976059 -0.07362938 C19.52080831 -0.09447854 24.7518299 -0.10878384 29.98291016 -0.11816406 C35.36953696 -0.12921075 40.75574867 -0.16359403 46.14222908 -0.20333576 C50.29799128 -0.22956161 54.45365559 -0.23786132 58.60949326 -0.24144554 C60.59409251 -0.24629804 62.57868779 -0.25787364 64.56320572 -0.27648354 C77.38416303 -0.38921533 88.11496945 -0.4813254 97.95263672 8.79418945 C98.74412109 9.58051758 99.53560547 10.3668457 100.35107422 11.17700195 C100.91020508 11.72388672 101.46933594 12.27077148 102.04541016 12.83422852 C113.87007214 24.40249617 113.87007214 24.40249617 118.62841797 29.9621582 C123.24948583 35.31153595 128.32094196 40.21766914 133.35107422 45.17700195 C135.27083366 47.06974065 137.18694676 48.96606953 139.10107422 50.86450195 C139.94154297 51.69336914 140.78201172 52.52223633 141.64794922 53.3762207 C143.72378128 55.5270467 145.68154189 57.69504441 147.62792969 59.95825195 C151.59277378 64.52806651 155.85512379 68.75394133 160.17138672 72.98950195 C161.85787335 74.65848109 163.54406238 76.327761 165.22998047 77.99731445 C167.85773558 80.59409696 170.48774248 83.18846574 173.12304688 85.77758789 C175.68768121 88.29972503 178.24263032 90.83135732 180.79638672 93.36450195 C181.57982452 94.12931885 182.36326233 94.89413574 183.17044067 95.68212891 C190.27101996 102.74946496 196.17042711 110.12937207 196.72607422 120.48950195 C196.36548788 133.1312346 186.14688036 141.52433726 177.83032227 149.87475586 C177.11384521 150.59780411 176.39736816 151.32085236 175.65917969 152.06581116 C173.31325636 154.43126853 170.96348812 156.79284954 168.61279297 159.15356445 C167.8042518 159.96618114 166.99571064 160.77879784 166.16266823 161.61603928 C161.88769425 165.91178272 157.60951559 170.20430588 153.32885742 174.49438477 C148.9258818 178.9084446 144.53471465 183.33406195 140.14605999 187.7623539 C136.75109881 191.18352223 133.3472221 194.5957153 129.94092751 198.00559616 C128.31856577 199.63280802 126.69956445 201.2633779 125.08411217 202.89744949 C122.81880944 205.1872445 120.54104322 207.46392639 118.26000977 209.73803711 C117.27847679 210.73878517 117.27847679 210.73878517 116.27711487 211.75975037 C108.49039583 219.4612792 99.67711201 224.99767348 88.53857422 225.55200195 C74.34325261 225.18636488 64.51439151 214.63649194 55.07104492 205.21923828 C54.19179352 204.34991669 53.31254211 203.48059509 52.40664673 202.58493042 C50.02059558 200.22289332 47.63910655 197.8564678 45.26057076 195.48687577 C43.76867484 194.00088495 42.27563032 192.51605737 40.78224754 191.0315609 C36.09294816 186.36952407 31.40760727 181.70356308 26.72804004 177.03175718 C21.35694036 171.66961983 15.97300782 166.3208246 10.5775159 160.98323423 C6.38483454 156.83396912 2.20393227 152.67306737 -1.96842891 148.50337046 C-4.45075517 146.02312582 -6.93755164 143.5478329 -9.43680382 141.08463478 C-12.22715794 138.33376852 -14.99286747 135.5588825 -17.75708008 132.78173828 C-18.57228622 131.9849617 -19.38749237 131.18818512 -20.22740173 130.36726379 C-27.74274435 122.74191339 -33.6423309 113.48912054 -33.85424805 102.53320312 C-33.87416809 101.61146301 -33.89408813 100.6897229 -33.91461182 99.74005127 C-33.93134949 98.74342468 -33.94808716 97.7467981 -33.96533203 96.7199707 C-33.98633972 95.67653503 -34.00734741 94.63309937 -34.0289917 93.55804443 C-34.09547158 90.16027482 -34.15437787 86.76244236 -34.21142578 83.36450195 C-34.23127533 82.21362091 -34.25112488 81.06273987 -34.27157593 79.87698364 C-34.37026825 74.09881782 -34.46285448 68.32059775 -34.54931641 62.54223633 C-34.61994335 57.86520191 -34.70755645 53.18886942 -34.80714417 48.51237488 C-34.87609377 45.04659729 -34.91765476 41.58068796 -34.96142578 38.11450195 C-34.99115479 36.91913818 -35.02088379 35.72377441 -35.05151367 34.4921875 C-35.12547433 23.80837625 -32.30810159 15.95543704 -24.93798828 8.1574707 C-17.44614295 1.67561817 -9.61562585 0.03149937 0 0 Z " fill="#E52528" transform="translate(554.64892578125,327.822998046875)"/>
<path d="M0 0 C0.88274599 -0.03643043 1.76549198 -0.07286087 2.67498785 -0.11039525 C5.62262226 -0.22737462 8.57051918 -0.32346501 11.51893616 -0.41853333 C13.63912399 -0.49631922 15.75929165 -0.57465684 17.87944031 -0.65350342 C37.35657779 -1.34982963 56.84329206 -1.73904304 76.32997799 -2.04961681 C89.39574948 -2.26266014 102.44598425 -2.56562932 115.50282288 -3.10212708 C211.07616233 -6.95448303 211.07616233 -6.95448303 235.53414631 14.74901485 C245.96175611 24.49100795 255.1503142 36.17995305 262.01527405 48.6837616 C262.01527405 49.0137616 262.01527405 49.3437616 262.01527405 49.6837616 C229.62368175 49.75227692 197.23211042 49.80533059 164.84046214 49.83695759 C161.01176976 49.84070947 157.18307753 49.84459246 153.35438538 49.84855652 C152.59219803 49.84934345 151.83001068 49.85013038 151.04472675 49.85094116 C138.72182075 49.86397639 126.39895696 49.8876198 114.07607595 49.91521998 C101.42100693 49.94332668 88.76595995 49.95994896 76.110861 49.96602708 C68.30910706 49.97013263 60.50747245 49.98307489 52.70575526 50.007511 C46.71196063 50.02532213 40.71826753 50.02711398 34.72444344 50.02308464 C32.27397174 50.02390716 29.82349535 50.02983695 27.37305069 50.04137802 C-6.8233949 50.19447989 -6.8233949 50.19447989 -18.0198822 39.7931366 C-23.6835652 33.69915325 -25.44149292 28.41510474 -25.2308197 20.1368866 C-24.57948835 13.64425029 -20.95256288 7.83046845 -15.98472595 3.6837616 C-10.53706141 0.9107599 -6.06564528 0.17874294 0 0 Z " fill="#FEFEFB" transform="translate(313.98472595214844,472.3162384033203)"/>
<path d="M0 0 C5.03711736 3.59794097 8.44597809 7.74408605 9.625 13.875 C10.36717315 22.67987232 6.0210935 29.80437505 2.00439453 37.28369141 C0.44124122 40.22020631 -1.07996989 43.17645261 -2.59765625 46.13671875 C-9.48666627 59.55817682 -16.57198956 72.85761894 -23.84228516 86.07568359 C-25.48280057 89.07188457 -27.10842941 92.07578962 -28.73046875 95.08203125 C-29.29693115 96.13173096 -29.86339355 97.18143066 -30.44702148 98.26293945 C-31.51934173 100.25171673 -32.59057631 102.24108002 -33.66040039 104.23120117 C-37.77734151 111.8579493 -42.07072025 119.34251043 -46.375 126.875 C-60.895 126.875 -75.415 126.875 -90.375 126.875 C-88.99061863 122.72185588 -87.83819688 119.60386471 -85.79296875 115.8828125 C-85.02364014 114.47370605 -85.02364014 114.47370605 -84.23876953 113.03613281 C-83.68560059 112.03420898 -83.13243164 111.03228516 -82.5625 110 C-81.37620017 107.8307849 -80.19000508 105.66151251 -79.00390625 103.4921875 C-78.39820801 102.38842773 -77.79250977 101.28466797 -77.16845703 100.14746094 C-74.4290461 95.14894962 -71.71375848 90.13747155 -69 85.125 C-68.47051758 84.14821289 -67.94103516 83.17142578 -67.39550781 82.16503906 C-63.4987266 74.97008559 -59.63105921 67.75977229 -55.7722168 60.54443359 C-49.47454108 48.769334 -43.14463713 37.01346786 -36.70654297 25.31445312 C-35.41212635 22.94301732 -34.14292014 20.55962498 -32.87890625 18.171875 C-25.68221781 4.7231566 -16.58681498 -5.52893833 0 0 Z " fill="#FDFDFB" transform="translate(475.375,332.125)"/>
<path d="M0 0 C3.86665297 2.08204391 6.72595332 4.20992219 9 8 C9 8.66 9 9.32 9 10 C9.75023437 9.7834375 10.50046875 9.566875 11.2734375 9.34375 C26.73996006 5.13623253 26.73996006 5.13623253 34 8.3125 C36.35846964 10.30245876 37.82076254 11.99249678 38.37109375 15.0859375 C38.50038828 19.54279615 38.49125561 21.3794666 35.625 25 C32.18227755 27.62302663 30.48225874 28.08806204 26.25 28.3125 C20.4091934 28.89154548 17.08471277 30.48234462 13.26953125 35.08984375 C9.87960841 39.4284223 9.87960841 39.4284223 9.2109375 44.671875 C9.83913947 47.16295639 9.83913947 47.16295639 12.0625 48.8125 C16.3127803 50.53069842 20.58217843 50.89412729 24.90991211 49.29370117 C26.80172368 48.32704357 28.61773832 47.28351728 30.4375 46.1875 C31.75001563 45.44721461 33.06511371 44.71148835 34.3828125 43.98046875 C35.31915527 43.45912354 35.31915527 43.45912354 36.27441406 42.92724609 C42.80199139 39.419643 49.61864522 37.79049776 57 39 C66.57627172 42.43727331 73.27430132 48.00046227 78 57 C80.63278632 64.89835897 79.03087748 72.15163028 75.77734375 79.58984375 C74.91377058 82.26735454 74.96730558 83.41826394 76 86 C76.515625 86.598125 77.03125 87.19625 77.5625 87.8125 C79.67870218 91.03280767 79.45630845 93.21915852 79 97 C77.3562347 100.11141288 75.96963114 102.28893717 73.125 104.375 C70.18891172 105.23855538 68.05485074 105.36658209 65 105 C61.625 103.125 61.625 103.125 59 101 C59 100.34 59 99.68 59 99 C58.03320312 99.28875 57.06640625 99.5775 56.0703125 99.875 C38.13142071 105.06571035 38.13142071 105.06571035 30.5 101.25 C26.70967742 97.83870968 26.70967742 97.83870968 26 95 C25.93492541 90.96537537 25.96761207 88.45208272 28.31640625 85.1484375 C30.7628948 82.75303572 32.71013472 81.13383218 36.18359375 80.7734375 C37.70126808 80.8418249 39.21832325 80.92546137 40.734375 81.0234375 C44.78937334 80.98148924 47.80373738 79.40722708 51 77 C53.39551803 74.55436653 55.54602042 72.11480145 57 69 C56.68797678 66.36940426 56.23128774 65.2698357 54.5 63.25 C50.17808792 61.08904396 45.36008106 61.22961624 40.78613281 62.72265625 C38.60268644 63.70016993 36.48925314 64.7559173 34.375 65.875 C25.50722265 70.42134238 16.70417385 74.13012754 6.640625 71.34765625 C-2.11347921 67.83092128 -8.91230481 61.50872175 -13 53 C-15.50978278 44.75819719 -13.75343319 38.46893302 -10.19140625 30.796875 C-9.04760391 28.11175213 -8.23794858 25.90880004 -8 23 C-10.30606479 19.78266213 -10.30606479 19.78266213 -13 17 C-14.5547669 13.89046621 -14.28644437 11.43733239 -14 8 C-10.44282923 1.49896377 -7.48653282 -0.76134232 0 0 Z " fill="#FEFCFB" transform="translate(602,376)"/>
<path d="M0 0 C5.98562822 6.84071797 6.96910956 15.89094313 7.8203125 24.62109375 C7.94308563 25.7604689 8.06585876 26.89984406 8.19235229 28.07374573 C8.57926734 31.69371893 8.94624851 35.31538404 9.3125 38.9375 C9.56508288 41.33282221 9.81897871 43.72800635 10.07421875 46.12304688 C10.5673538 50.77082175 11.05112277 55.41940429 11.52587891 60.0690918 C11.93630106 64.08519566 12.35791407 68.09962538 12.79833984 72.11254883 C14.5486438 88.08649342 14.5486438 88.08649342 14.5625 95.3125 C14.58699219 96.03501953 14.61148438 96.75753906 14.63671875 97.50195312 C14.66497451 102.66804859 13.41469196 105.51763333 10.1875 109.5 C6.48760527 112.92917072 3.6082651 113.79969749 -1.3125 114 C-6.23853649 113.79279901 -9.14547182 112.98814876 -12.8125 109.5 C-17.64129016 102.97510888 -17.99434127 95.95141923 -18.8125 88.0625 C-18.97330183 86.61812666 -19.13519339 85.17387428 -19.2980957 83.72973633 C-19.73378092 79.8184406 -20.1464798 75.90504498 -20.55279541 71.99060059 C-20.81792007 69.44802084 -21.08870989 66.90609676 -21.36083984 64.36425781 C-21.91891854 59.13985973 -22.46211666 53.9140119 -23 48.6875 C-23.08467529 47.87403107 -23.16935059 47.06056213 -23.2565918 46.22244263 C-23.83182741 40.65255899 -24.34166031 35.07960955 -24.8125 29.5 C-24.89131409 28.62506897 -24.97012817 27.75013794 -25.05133057 26.84869385 C-25.28480096 24.16737291 -25.48444351 21.48540573 -25.67578125 18.80078125 C-25.75007858 17.98804245 -25.82437592 17.17530365 -25.90092468 16.3379364 C-26.2621231 10.5550542 -25.18499767 6.27662634 -21.8125 1.5 C-14.5517464 -4.3993623 -8.12854946 -4.33522638 0 0 Z " fill="#086A33" transform="translate(430.8125,570.5)"/>
<path d="M0 0 C4.38334279 4.17461218 6.51857517 7.92948566 6.77148438 14.03808594 C6.70702649 21.84416958 5.73681333 29.61998875 4.9453125 37.37890625 C4.77051952 39.11805527 4.59595266 40.85722703 4.42160034 42.59642029 C4.05637761 46.22857329 3.68778324 49.86036472 3.31689453 53.49194336 C2.84357923 58.13002614 2.37970184 62.76899721 1.9184742 67.40829563 C1.56059782 70.99564468 1.19719739 74.58241828 0.83221054 78.16905022 C0.65898129 79.87877156 0.4875575 81.58867689 0.3180275 83.298769 C0.07983783 85.69401836 -0.16593641 88.08837744 -0.41357422 90.48266602 C-0.48118958 91.17847275 -0.54880493 91.87427948 -0.61846924 92.59117126 C-1.46191553 100.56917661 -2.61762737 106.74262737 -8.375 112.5 C-13.05296476 115.41873015 -18.04200339 115.10373547 -23.375 114.5 C-28.41428449 112.3010395 -30.29575338 109.43467402 -32.57550049 104.67504883 C-33.82433169 101.27758729 -33.65356408 98.12261886 -33.3046875 94.59375 C-33.24481659 93.80021118 -33.18494568 93.00667236 -33.1232605 92.18908691 C-32.89697116 89.29041388 -32.63459276 86.39587671 -32.375 83.5 C-32.16929605 80.98450552 -31.96531249 78.46886999 -31.76269531 75.953125 C-31.17910326 68.78955781 -30.54669516 61.63084927 -29.90087891 54.47265625 C-29.56341385 50.72755228 -29.23856437 46.98146277 -28.91649055 43.23500824 C-28.66240945 40.30532368 -28.39929099 37.37649941 -28.13378525 34.4478302 C-28.01012042 33.06725546 -27.88968265 31.68638706 -27.77280045 30.30522156 C-25.82362567 7.39588633 -25.82362567 7.39588633 -19.375 1.5 C-13.38546734 -2.6356297 -6.55852321 -2.91489921 0 0 Z " fill="#086A33" transform="translate(592.375,569.5)"/>
<path d="M0 0 C3.75435958 3.17034809 6.33535639 6.61399764 7.17904472 11.49601936 C7.32341333 13.90714331 7.34186378 16.2880688 7.31420898 18.70336914 C7.31961197 19.6115892 7.32501495 20.51980927 7.33058167 21.45555115 C7.34303145 24.44075676 7.32660406 27.42499094 7.30859375 30.41015625 C7.30874881 32.49328156 7.31023897 34.57640716 7.31300354 36.65953064 C7.31438581 41.01802375 7.30185696 45.3761871 7.27905273 49.73461914 C7.2506512 55.31546909 7.25341264 60.8957721 7.26614285 66.47666264 C7.27310391 70.77555497 7.26530609 75.07432131 7.25288582 79.37319756 C7.24837674 81.4308467 7.24802976 83.48850939 7.25195122 85.54615974 C7.25486804 88.42306287 7.23833427 91.29921702 7.21655273 94.17602539 C7.22105438 95.02242584 7.22555603 95.86882629 7.23019409 96.74087524 C7.16809313 101.6882101 6.54175646 105.08539697 3.8125 109.375 C-1.14853239 113.85202923 -4.11300745 114.67459717 -10.6484375 114.58984375 C-15.48999648 114.18017337 -18.25795726 112.37991107 -21.5 108.875 C-24.62004316 104.25271383 -24.34763006 99.89513269 -24.36450195 94.51660156 C-24.37107315 93.6105719 -24.37764435 92.70454224 -24.38441467 91.77105713 C-24.4041434 88.76924558 -24.41580956 85.76748407 -24.42578125 82.765625 C-24.42985678 81.74005241 -24.4339323 80.71447983 -24.43813133 79.65782928 C-24.45899059 74.22924501 -24.47329276 68.800686 -24.48266602 63.37207031 C-24.49372809 57.76877342 -24.52812631 52.1658739 -24.56783772 46.56271744 C-24.59399989 42.25094877 -24.60235753 37.93927483 -24.60594749 33.62743378 C-24.61081472 31.56220568 -24.62243255 29.49698185 -24.64098549 27.43183136 C-24.66536732 24.53789404 -24.66441349 21.64498544 -24.6574707 18.75097656 C-24.67028076 17.90188721 -24.68309082 17.05279785 -24.69628906 16.17797852 C-24.64616247 10.43017791 -23.51406113 7.09547809 -20.1875 2.375 C-13.45797735 -2.95253877 -7.90894754 -4.03201247 0 0 Z " fill="#076933" transform="translate(510.1875,569.625)"/>
<path d="M0 0 C5.21523137 4.36905987 10.12084832 8.94735702 14.9453125 13.7421875 C15.67821503 14.46938995 16.41111755 15.19659241 17.16622925 15.9458313 C18.70546726 17.47567784 20.24329895 19.00694051 21.77978516 20.53955078 C24.11823955 22.8682677 26.46715444 25.18608913 28.81640625 27.50390625 C30.31836718 28.99933857 31.81969087 30.49541124 33.3203125 31.9921875 C34.01625519 32.67578339 34.71219788 33.35937927 35.42922974 34.06369019 C43.316727 41.9871764 48.18810974 49.65213127 48.265625 61.046875 C48 63 48 63 46 65 C45.95101562 63.92878906 45.90203125 62.85757813 45.8515625 61.75390625 C45.77654706 60.35674361 45.7009987 58.9596095 45.625 57.5625 C45.5940625 56.85544922 45.563125 56.14839844 45.53125 55.41992188 C45.42719371 53.60760812 45.22080108 51.80182012 45 50 C44.01 49.505 44.01 49.505 43 49 C42.54625 48.05125 42.0925 47.1025 41.625 46.125 C40.02222834 43.0427468 38.8958547 41.79742705 36 40 C36.495 39.01 36.495 39.01 37 38 C36.34 38 35.68 38 35 38 C33.6328125 36.57421875 33.6328125 36.57421875 32.125 34.6875 C29.93475618 32.03136079 27.82637604 29.98893129 25 28 C24.67 27.34 24.34 26.68 24 26 C23.360625 25.71125 22.72125 25.4225 22.0625 25.125 C20 24 20 24 19.12939453 22.19580078 C17.74926266 19.51250937 16.03296979 17.84039175 13.8671875 15.7421875 C13.06152344 14.95199219 12.25585938 14.16179687 11.42578125 13.34765625 C10.58402344 12.53167969 9.74226562 11.71570313 8.875 10.875 C7.20122785 9.25202519 5.53170941 7.62464799 3.8671875 5.9921875 C3.12581543 5.27401855 2.38444336 4.55584961 1.62060547 3.81591797 C0 2 0 2 0 0 Z " fill="#EC1C21" transform="translate(703,390)"/>
<path d="M0 0 C0.66 0.33 1.32 0.66 2 1 C1.50628906 1.47050781 1.01257813 1.94101562 0.50390625 2.42578125 C-0.45708984 3.35970703 -0.45708984 3.35970703 -1.4375 4.3125 C-2.39462891 5.23482422 -2.39462891 5.23482422 -3.37109375 6.17578125 C-5.2221418 8.00644056 -5.2221418 8.00644056 -6 11 C-7.36733733 11.88876926 -8.73761303 12.77329344 -10.12109375 13.63671875 C-14.17949017 16.58137645 -17.51965439 20.41029048 -21 24 C-21.95620135 24.93967441 -22.91405188 25.87768038 -23.875 26.8125 C-25.79162983 28.7855013 -27.36517057 30.79653424 -29 33 C-30.31442362 34.35197858 -31.6434836 35.69026002 -33 37 C-33.66 36.34 -34.32 35.68 -35 35 C-23.45 23.45 -11.9 11.9 0 0 Z " fill="#017B3C" transform="translate(704,505)"/>
<path d="M0 0 C4.19625909 1.63778045 6.98676785 4.73323182 10.078125 7.8828125 C10.64956238 8.45707977 11.22099976 9.03134705 11.80975342 9.62301636 C13.62792945 11.4523581 15.43901492 13.28854193 17.25 15.125 C18.48391329 16.36894774 19.71828322 17.6124427 20.953125 18.85546875 C23.97406743 21.89842367 26.98867092 24.94753254 30 28 C26.71823412 28 24.89111788 27.52164099 22 26 C21.896875 25.43023438 21.79375 24.86046875 21.6875 24.2734375 C20.64744547 20.83416628 18.15240229 18.79871399 15.625 16.375 C15.13 15.88515625 14.635 15.3953125 14.125 14.890625 C11.84598217 12.66035622 9.66118818 10.77412545 7 9 C5.64613064 7.34997172 4.31321858 5.6825613 3 4 C2.4225 3.4225 1.845 2.845 1.25 2.25 C0.8375 1.8375 0.425 1.425 0 1 C0 0.67 0 0.34 0 0 Z " fill="#027D3E" transform="translate(570,494)"/>
<path d="M0 0 C3.51508155 1.17169385 4.55756947 2.43551967 6.8125 5.3125 C9.05913462 8.0726511 11.45356007 10.51566837 14 13 C15.66666667 14.66666667 17.33333333 16.33333333 19 18 C19.66 17.67 20.32 17.34 21 17 C21 17.66 21 18.32 21 19 C21.66 19.33 22.32 19.66 23 20 C22.34 20.99 21.68 21.98 21 23 C18.00292183 20.05226582 15.01239506 17.09808792 12.02783203 14.13769531 C11.01106601 13.13100272 9.99251438 12.12611034 8.97216797 11.12304688 C7.50798782 9.68305629 6.05029795 8.23676744 4.59375 6.7890625 C3.71396484 5.91975098 2.83417969 5.05043945 1.92773438 4.15478516 C0 2 0 2 0 0 Z " fill="#067B3E" transform="translate(674,358)"/>
<path d="M0 0 C4.58625576 3.0269288 8.00108718 5.96317008 11.4453125 10.2265625 C13.61709163 12.70391859 16.09993799 14.70016746 18.6796875 16.73828125 C19.33324219 17.36283203 19.33324219 17.36283203 20 18 C20 18.66 20 19.32 20 20 C21.32 20.66 22.64 21.32 24 22 C23.01 22.33 22.02 22.66 21 23 C18.00292183 20.05226582 15.01239506 17.09808792 12.02783203 14.13769531 C11.01106601 13.13100272 9.99251438 12.12611034 8.97216797 11.12304688 C7.50798782 9.68305629 6.05029795 8.23676744 4.59375 6.7890625 C3.71396484 5.91975098 2.83417969 5.05043945 1.92773438 4.15478516 C0 2 0 2 0 0 Z " fill="#E81D23" transform="translate(591,512)"/>
<path d="M0 0 C2.71868935 1.03122699 3.83557085 1.7232428 5.34375 4.26171875 C7.7482674 8.2371119 10.9429406 11.34362825 14.13671875 14.6953125 C16 17 16 17 16 20 C10.39 14.39 4.78 8.78 -1 3 C-0.67 2.01 -0.34 1.02 0 0 Z " fill="#08793D" transform="translate(709,392)"/>
<path d="M0 0 C0.66 0.33 1.32 0.66 2 1 C-5.10593223 6.12400555 -10.95964645 9.44099286 -20 9 C-20 8.34 -20 7.68 -20 7 C-18.72125 6.9175 -17.4425 6.835 -16.125 6.75 C-13.9390249 6.53760757 -13.9390249 6.53760757 -12 6 C-10.6237206 4.08235826 -10.6237206 4.08235826 -10 2 C-9.01 1.67 -8.02 1.34 -7 1 C-7.33 2.32 -7.66 3.64 -8 5 C-7.44570313 4.62746094 -6.89140625 4.25492188 -6.3203125 3.87109375 C-5.59585938 3.39800781 -4.87140625 2.92492187 -4.125 2.4375 C-3.40570312 1.96183594 -2.68640625 1.48617187 -1.9453125 0.99609375 C-0.98238281 0.50302734 -0.98238281 0.50302734 0 0 Z " fill="#EF1A20" transform="translate(662,544)"/>
<path d="M0 0 C2.41956723 2.76521969 4.19549035 5.33155591 5.625 8.6875 C8.37863189 14.54176617 13.33230779 18.65298893 18 23 C13.87853349 23 13.00362681 21.436752 10.125 18.5625 C4.84621045 13.12164235 0 7.83759771 0 0 Z " fill="#F6171F" transform="translate(523,438)"/>
<path d="M0 0 C4.35574636 0.48397182 6.0913259 1.79042858 9 5 C9.66 5.33 10.32 5.66 11 6 C11.2475 6.556875 11.495 7.11375 11.75 7.6875 C13.58869174 11.08907973 16.21003785 13.33134055 19 16 C18.67 16.66 18.34 17.32 18 18 C12 12 6 6 0 0 Z " fill="#037C3E" transform="translate(646,331)"/>
<path d="M0 0 C0 1.65 0 3.3 0 5 C-1.134375 5.12375 -2.26875 5.2475 -3.4375 5.375 C-5.2009375 5.684375 -5.2009375 5.684375 -7 6 C-7.33 6.66 -7.66 7.32 -8 8 C-10.0625 8.625 -10.0625 8.625 -12 9 C-5 0 -5 0 0 0 Z " fill="#EE1E21" transform="translate(539,331)"/>
<path d="M0 0 C5.62219846 4.66522851 11.16010796 9.51259405 16 15 C16 15.66 16 16.32 16 17 C15.34 17 14.68 17 14 17 C12.17270951 15.06469234 10.53104622 13.00952377 8.8515625 10.9453125 C6.97474808 8.9734695 5.42342227 8.15640482 3 7 C0 2.71428571 0 2.71428571 0 0 Z " fill="#007F3F" transform="translate(605,528)"/>
<path d="M0 0 C4.07376031 1.61010527 6.76507069 4.53822271 9.75 7.625 C10.25660156 8.140625 10.76320313 8.65625 11.28515625 9.1875 C12.52803902 10.45383339 13.76465276 11.7263144 15 13 C14.01 14.32 13.02 15.64 12 17 C11.34 16.34 10.68 15.68 10 15 C10 13.68 10 12.36 10 11 C7.80019558 8.35221798 7.80019558 8.35221798 5 5.8125 C3.32173112 4.22047549 1.65185836 2.61941114 0 1 C0 0.67 0 0.34 0 0 Z " fill="#DA2223" transform="translate(655,341)"/>
<path d="M0 0 C0.66 0.33 1.32 0.66 2 1 C-5.66433594 7.52283909 -13.46441385 6.4876152 -23 6 C-23 5.67 -23 5.34 -23 5 C-21.38931641 4.83564453 -21.38931641 4.83564453 -19.74609375 4.66796875 C-18.3098322 4.50838413 -16.87363767 4.34819558 -15.4375 4.1875 C-14.73302734 4.11724609 -14.02855469 4.04699219 -13.30273438 3.97460938 C-9.60453253 3.54854925 -6.49852918 2.91249923 -3.09765625 1.36328125 C-2.07542969 0.91339844 -1.05320312 0.46351563 0 0 Z " fill="#077C3D" transform="translate(659,548)"/>
<path d="M0 0 C4.75 1.875 4.75 1.875 7 3 C8.70363822 3.22622081 10.41328701 3.40888473 12.125 3.5625 C13.03507813 3.64628906 13.94515625 3.73007812 14.8828125 3.81640625 C15.58148437 3.87699219 16.28015625 3.93757813 17 4 C16.34 4.66 15.68 5.32 15 6 C11.7421875 5.9765625 11.7421875 5.9765625 7.875 5.625 C5.95300781 5.45871094 5.95300781 5.45871094 3.9921875 5.2890625 C2.51105469 5.14597656 2.51105469 5.14597656 1 5 C0.67 3.35 0.34 1.7 0 0 Z " fill="#E21011" transform="translate(629,475)"/>
<path d="M0 0 C1.65 0 3.3 0 5 0 C5.12181641 0.85851562 5.12181641 0.85851562 5.24609375 1.734375 C6.23275695 4.69947685 7.81104466 6.10575681 10.0625 8.25 C10.79597656 8.95640625 11.52945313 9.6628125 12.28515625 10.390625 C13.13400391 11.18726563 13.13400391 11.18726563 14 12 C13.67 12.66 13.34 13.32 13 14 C10.83031809 11.85714108 8.66416525 9.71091768 6.5 7.5625 C5.87996094 6.95083984 5.25992188 6.33917969 4.62109375 5.70898438 C4.03457031 5.12568359 3.44804688 4.54238281 2.84375 3.94140625 C2.02680664 3.13231812 2.02680664 3.13231812 1.19335938 2.30688477 C0 1 0 1 0 0 Z " fill="#007E3E" transform="translate(731,417)"/>
<path d="M0 0 C1.33332095 2.6666419 0.67102033 4.16680303 0 7 C-0.66 7 -1.32 7 -2 7 C-2.66 10.3 -3.32 13.6 -4 17 C-4.33 17 -4.66 17 -5 17 C-5.46060581 10.55151869 -4.41348898 6.49722522 -1 1 C-0.67 0.67 -0.34 0.34 0 0 Z " fill="#F11921" transform="translate(526,341)"/>
<path d="M0 0 C3.33523252 1.38009621 5.18607951 2.84950652 7 6 C6.67 6.99 6.34 7.98 6 9 C3.11424181 8.60196439 2.17810487 8.20990931 0.25 5.9375 C-0.1625 5.298125 -0.575 4.65875 -1 4 C0.32 4 1.64 4 3 4 C2.01 2.68 1.02 1.36 0 0 Z " fill="#ED1F21" transform="translate(649,335)"/>
<path d="M0 0 C1.51953125 1.01953125 1.51953125 1.01953125 3 3 C3.05546517 5.67108574 2.96547069 8.05292823 2.6875 10.6875 C2.62626953 11.38939453 2.56503906 12.09128906 2.50195312 12.81445312 C2.34897376 14.5442967 2.17637398 16.27238497 2 18 C1.67 18 1.34 18 1 18 C0.10395632 11.95170514 -0.11269443 6.1105424 0 0 Z " fill="#033111" transform="translate(411,638)"/>
<path d="M0 0 C0 3.97054597 -1.3139381 5.16471244 -4 8 C-6.140625 8.6484375 -6.140625 8.6484375 -8 9 C-7.04270084 7.87411986 -6.08412105 6.7493285 -5.125 5.625 C-4.59132813 4.99851562 -4.05765625 4.37203125 -3.5078125 3.7265625 C-2.38567993 2.44163349 -1.20628025 1.20628025 0 0 Z " fill="#147338" transform="translate(742,467)"/>
<path d="M0 0 C2.39763185 2.39763185 2.34280586 3.33273498 2.625 6.625 C2.69976562 7.44226563 2.77453125 8.25953125 2.8515625 9.1015625 C2.90054687 9.72804688 2.94953125 10.35453125 3 11 C2.67 10.34 2.34 9.68 2 9 C1.01 8.67 0.02 8.34 -1 8 C-0.7525 7.13375 -0.7525 7.13375 -0.5 6.25 C0.14462031 3.73335631 0.14462031 3.73335631 0 0 Z " fill="#0A3B17" transform="translate(341,630)"/>
<path d="M0 0 C0.66 1.32 1.32 2.64 2 4 C1.071875 4.12375 1.071875 4.12375 0.125 4.25 C-2.18437567 4.81258459 -2.18437567 4.81258459 -3.25 7.0625 C-3.4975 7.701875 -3.745 8.34125 -4 9 C-3.46930939 5.17902761 -2.50298434 2.93828597 0 0 Z " fill="#09793D" transform="translate(749,458)"/>
<path d="M0 0 C0.0825 0.61875 0.165 1.2375 0.25 1.875 C0.81258459 4.18437567 0.81258459 4.18437567 3.0625 5.25 C3.701875 5.4975 4.34125 5.745 5 6 C5 6.99 5 7.98 5 9 C2.5 7.3125 2.5 7.3125 0 5 C-0.3125 2.25 -0.3125 2.25 0 0 Z " fill="#1D703B" transform="translate(699,381)"/>
</svg>
